<?xml version="1.0" standalone="no"?>
<!DOCTYPE svg PUBLIC "-//W3C//DTD SVG 20010904//EN"
 "http://www.w3.org/TR/2001/REC-SVG-20010904/DTD/svg10.dtd">
<svg version="1.0" xmlns="http://www.w3.org/2000/svg"
 width="541.000000pt" height="541.000000pt" viewBox="0 0 541.000000 541.000000"
 preserveAspectRatio="xMidYMid meet">
<metadata>
Created by potrace 1.14, written by Peter Selinger 2001-2017
</metadata>
<g transform="translate(0.000000,541.000000) scale(0.100000,-0.100000)"
fill="#000000" stroke="none">
<path d="M0 2951 l0 -2459 66 -22 67 -22 67 73 c37 41 95 103 128 139 67 71
67 76 2 105 -22 10 -38 20 -36 22 2 2 27 -8 56 -22 l52 -26 151 148 c82 81
200 198 261 258 166 163 248 213 526 324 85 33 175 74 200 91 31 21 48 26 55
19 16 -16 -58 -75 -152 -120 -44 -21 -87 -39 -95 -39 -8 0 -19 -5 -25 -11 -6
-6 -17 -12 -24 -13 -19 -4 -52 -18 -139 -60 -96 -47 -118 -60 -149 -88 -15
-13 -39 -32 -55 -42 -17 -11 -73 -62 -126 -115 -133 -134 -340 -331 -343 -328
-2 2 -321 -316 -384 -384 -17 -19 -47 -49 -67 -67 l-36 -33 0 -134 0 -135
2700 0 2700 0 0 144 0 143 -73 69 c-41 38 -81 76 -90 84 -9 8 -34 33 -55 55
-21 22 -87 86 -147 142 -61 56 -153 144 -205 195 -53 51 -111 105 -129 120
-19 15 -82 74 -141 132 -167 163 -214 196 -405 280 -232 102 -249 110 -302
145 -35 22 -53 41 -53 54 0 19 1 19 27 2 62 -41 96 -57 243 -115 285 -113 337
-148 598 -406 102 -101 189 -184 193 -184 4 0 12 14 19 30 7 17 17 33 22 36 5
3 0 -13 -12 -36 l-22 -43 62 -62 62 -62 51 28 c29 16 57 29 62 29 6 0 -12 -13
-39 -28 -27 -15 -51 -31 -53 -37 -1 -5 55 -70 126 -144 l128 -134 66 22 67 23
0 2459 0 2459 -2700 0 -2700 0 0 -2459z m2727 1592 c-20 -2 -52 -2 -70 0 -17
2 0 4 38 4 39 0 53 -2 32 -4z m-898 -712 c-19 -84 -29 -167 -30 -246 l-2 -80
-7 60 c-4 33 -7 47 -9 30 -4 -77 -31 -363 -35 -390 -7 -38 -21 -150 -41 -325
-9 -74 -20 -155 -25 -180 -5 -25 -12 -65 -14 -91 -3 -25 -7 -52 -10 -60 -3 -7
-7 -25 -10 -39 -5 -30 -41 -176 -60 -245 -8 -27 -18 -68 -22 -90 -4 -22 -9
-44 -10 -50 -2 -5 -10 -44 -19 -85 l-15 -75 5 85 c3 57 23 158 59 301 60 238
86 413 111 739 27 340 56 524 115 718 24 80 35 92 19 23z m1755 -39 c56 -187
83 -355 111 -712 26 -321 52 -495 111 -729 36 -144 56 -244 59 -301 l5 -85
-14 84 c-8 46 -23 118 -35 160 -65 241 -112 477 -132 661 -5 47 -20 182 -35
300 -26 220 -41 358 -45 420 l-2 35 -7 -40 c-6 -29 -7 -22 -4 28 3 41 0 67 -6
67 -5 0 -10 15 -10 33 0 28 -6 61 -26 147 -12 53 7 10 30 -68z m-1987 -2109
c-2 -16 -4 -3 -4 27 0 30 2 43 4 28 2 -16 2 -40 0 -55z m-1125 -708 c25 -35
18 -29 -48 45 -39 44 -41 48 -10 20 21 -19 47 -48 58 -65z m4503 43 c-61 -67
-72 -78 -55 -53 17 25 93 105 98 105 3 0 -17 -24 -43 -52z m-3322 -12 c28 -18
104 -65 167 -104 l115 -71 3 104 3 105 29 0 30 0 0 -134 c0 -74 -4 -137 -8
-140 -5 -3 -86 42 -181 99 -95 58 -174 105 -177 105 -2 0 -4 -47 -4 -105 l0
-105 -30 0 -30 0 0 133 c0 74 3 137 7 140 11 12 22 8 76 -27z m957 14 c0 -19
-8 -20 -166 -22 -146 -3 -168 -5 -178 -20 -8 -13 -8 -23 0 -35 10 -16 32 -18
178 -21 157 -2 166 -4 166 -22 0 -19 -9 -20 -172 -22 l-173 -3 -3 -24 c-7 -45
17 -51 190 -51 151 0 158 -1 158 -20 0 -19 -6 -20 -162 -19 -99 0 -177 5 -198
12 -43 15 -60 53 -43 97 8 22 8 38 0 60 -14 38 0 80 33 97 17 9 79 13 198 13
165 0 172 -1 172 -20z m544 -1 c19 -15 26 -30 26 -54 0 -48 -26 -75 -83 -83
l-49 -7 66 -53 c36 -30 66 -56 66 -58 0 -2 -18 -4 -39 -4 -33 0 -52 10 -116
61 -66 52 -81 60 -113 57 l-37 -3 -5 -55 c-5 -51 -7 -55 -32 -58 -28 -3 -28
-3 -28 56 0 89 12 96 167 102 106 4 128 8 137 23 8 12 8 22 0 35 -10 15 -31
17 -158 20 -138 2 -146 4 -146 22 0 19 7 20 159 20 145 0 161 -2 185 -21z
m534 -109 c50 -71 92 -134 92 -139 0 -20 -59 -12 -70 9 -10 18 -21 20 -135 20
-114 0 -125 -2 -135 -20 -10 -19 -40 -27 -53 -14 -3 3 11 29 31 57 120 172
155 217 165 217 7 -1 54 -59 105 -130z m-3173 -1 c9 -17 15 -33 13 -35 -3 -2
-12 12 -21 31 -21 43 -13 47 8 4z m-395 -39 c8 -5 11 -10 5 -10 -5 0 -17 5
-25 10 -8 5 -10 10 -5 10 6 0 17 -5 25 -10z m5180 0 c-8 -5 -19 -10 -25 -10
-5 0 -3 5 5 10 8 5 20 10 25 10 6 0 3 -5 -5 -10z m-5111 -36 c14 -12 -19 -1
-35 12 -18 14 -18 14 6 3 14 -6 27 -13 29 -15z m5057 11 c-11 -8 -25 -15 -30
-15 -6 1 0 7 14 15 32 19 40 18 16 0z m-4996 -35 c8 -5 11 -10 5 -10 -5 0 -17
5 -25 10 -8 5 -10 10 -5 10 6 0 17 -5 25 -10z m4920 0 c-8 -5 -19 -10 -25 -10
-5 0 -3 5 5 10 8 5 20 10 25 10 6 0 3 -5 -5 -10z"/>
<path d="M3528 914 c-21 -30 -38 -59 -38 -63 0 -8 149 -5 157 3 4 3 -76 117
-81 116 0 -1 -18 -26 -38 -56z"/>
<path d="M0 399 l0 -80 45 38 c50 41 79 79 67 86 -4 3 -31 12 -59 20 l-53 16
0 -80z"/>
<path d="M5345 463 c-27 -8 -53 -18 -57 -22 -4 -4 19 -33 52 -66 l60 -59 0 82
c0 45 -1 82 -2 81 -2 0 -25 -7 -53 -16z"/>
</g>
</svg>
