<svg width="44" height="44" viewBox="0 0 44 44" fill="none" xmlns="http://www.w3.org/2000/svg">
<path d="M22 43C33.598 43 43 33.598 43 22C43 10.402 33.598 1 22 1C10.402 1 1 10.402 1 22C1 33.598 10.402 43 22 43Z" fill="url(#paint0_linear_37_26)" stroke="url(#paint1_linear_37_26)" stroke-width="2"/>
<path fill-rule="evenodd" clip-rule="evenodd" d="M11.0532 21.7889C16.8836 19.2487 20.7714 17.574 22.7167 16.7649C28.2709 14.4547 29.4251 14.0534 30.1773 14.0402C30.3427 14.0373 30.7127 14.0783 30.9523 14.2727C31.1546 14.4369 31.2103 14.6587 31.2369 14.8143C31.2636 14.97 31.2968 15.3246 31.2704 15.6017C30.9694 18.7641 29.667 26.4386 29.0045 29.9806C28.7241 31.4794 28.1721 31.9819 27.6377 32.0311C26.4762 32.138 25.5943 31.2635 24.4694 30.5261C22.7091 29.3723 21.7147 28.654 20.006 27.528C18.0314 26.2268 19.3115 25.5116 20.4368 24.3428C20.7313 24.0369 25.8486 19.3823 25.9477 18.96C25.9601 18.9072 25.9716 18.7104 25.8546 18.6065C25.7377 18.5025 25.5651 18.5381 25.4405 18.5663C25.264 18.6064 22.4519 20.465 17.0044 24.1423C16.2062 24.6904 15.4833 24.9574 14.8355 24.9434C14.1214 24.928 12.7477 24.5397 11.7266 24.2077C10.4741 23.8006 9.47862 23.5853 9.5653 22.8939C9.61045 22.5337 10.1064 22.1654 11.0532 21.7889Z" fill="white"/>
<defs>
<linearGradient id="paint0_linear_37_26" x1="22" y1="2" x2="22" y2="41.7033" gradientUnits="userSpaceOnUse">
<stop stop-color="#2AABEE"/>
<stop offset="1" stop-color="#229ED9"/>
</linearGradient>
<linearGradient id="paint1_linear_37_26" x1="22" y1="2" x2="22" y2="42" gradientUnits="userSpaceOnUse">
<stop stop-color="white" stop-opacity="0.1"/>
<stop offset="1" stop-color="white" stop-opacity="0"/>
</linearGradient>
</defs>
</svg>
